<svg width="62" height="16" viewBox="0 0 62 16" fill="none" xmlns="http://www.w3.org/2000/svg">
<path d="M0.52 15V0.899999H2.56L8.48 10.12L9.8 12.18V9.04V0.899999H11.64V15H9.58L3.68 5.8L2.34 3.72V6.86V15H0.52ZM17.4002 15.3C15.3402 15.3 13.8002 14.16 13.8002 12.24C13.8002 10.3 15.2002 9.42 16.8002 9.14L19.3602 8.66C20.2002 8.5 20.7002 8.24 20.7002 7.48C20.7002 6.56 19.9402 5.94 18.4602 5.94C17.1802 5.94 16.0002 6.54 15.9202 7.82H14.0802C14.2002 5.66 16.1002 4.4 18.4602 4.4C21.3202 4.4 22.4602 5.86 22.4602 7.52V12.7C22.4602 13.36 22.8002 13.56 23.2002 13.56C23.4002 13.56 23.6002 13.54 23.8002 13.48V14.96C23.5202 15.08 23.0602 15.2 22.5402 15.2C21.6602 15.2 20.9402 14.8 20.7402 13.88C20.2802 14.44 19.2602 15.3 17.4002 15.3ZM17.7402 13.74C19.4002 13.74 20.7002 12.78 20.7002 11.34V9.64C20.5002 9.86 19.8802 10.04 19.1202 10.18L17.4402 10.5C16.1802 10.74 15.6202 11.26 15.6202 12.18C15.6202 13.24 16.5202 13.74 17.7402 13.74ZM28.3423 15.2C26.8623 15.2 25.9223 14.48 25.9223 12.96V6.32H24.1023V4.82H25.0023C25.7623 4.82 26.0023 4.56 26.0023 3.82V2.26H27.6823V4.7H29.7823V6.32H27.6823V12.3C27.6823 13.16 28.0423 13.5 28.7423 13.5C29.1023 13.5 29.3623 13.46 29.7823 13.36V14.98C29.2623 15.14 28.8823 15.2 28.3423 15.2ZM35.3048 15.3C33.2448 15.3 31.5848 14.08 31.5848 11V4.7H33.3648V10.76C33.3648 12.68 34.3048 13.64 35.8048 13.64C37.5448 13.64 38.5048 12.4 38.5048 10.68V4.7H40.2848V15H38.5448V13.68C37.9848 14.68 36.8048 15.3 35.3048 15.3ZM42.72 15V4.7H44.46V6.32C44.88 5.16 45.96 4.5 47.14 4.5H47.64V6.28H47.24C45.36 6.28 44.5 7.5 44.5 9.28V15H42.72ZM51.9509 15.3C49.8909 15.3 48.3509 14.16 48.3509 12.24C48.3509 10.3 49.7509 9.42 51.3509 9.14L53.9109 8.66C54.7509 8.5 55.2509 8.24 55.2509 7.48C55.2509 6.56 54.4909 5.94 53.0109 5.94C51.7309 5.94 50.5509 6.54 50.4709 7.82H48.6309C48.7509 5.66 50.6509 4.4 53.0109 4.4C55.8709 4.4 57.0109 5.86 57.0109 7.52V12.7C57.0109 13.36 57.3509 13.56 57.7509 13.56C57.9509 13.56 58.1509 13.54 58.3509 13.48V14.96C58.0709 15.08 57.6109 15.2 57.0909 15.2C56.2109 15.2 55.4909 14.8 55.2909 13.88C54.8309 14.44 53.8109 15.3 51.9509 15.3ZM52.2909 13.74C53.9509 13.74 55.2509 12.78 55.2509 11.34V9.64C55.0509 9.86 54.4309 10.04 53.6709 10.18L51.9909 10.5C50.7309 10.74 50.1709 11.26 50.1709 12.18C50.1709 13.24 51.0709 13.74 52.2909 13.74ZM59.6927 15V0.899999H61.4727V15H59.6927Z" fill="black"/>
</svg>